<?xml version="1.0" encoding="iso-8859-1"?>
<!-- Generator: Adobe Illustrator 18.1.1, SVG Export Plug-In . SVG Version: 6.00 Build 0)  -->
<svg version="1.1" id="Capa_1" xmlns="http://www.w3.org/2000/svg" xmlns:xlink="http://www.w3.org/1999/xlink" x="0px" y="0px"
	 viewBox="0 0 317.516 317.516" style="enable-background:new 0 0 317.516 317.516;" xml:space="preserve">
<g>
	<g>
		<g>
			<path style="fill:#010002;" d="M158.766,0C71.219,0,0,71.214,0,158.75c0,87.547,71.225,158.766,158.766,158.766
				c87.536,0,158.75-71.225,158.75-158.766C317.511,71.208,246.303,0,158.766,0z M170.047,267.308
				c-14.724,0-26.684-11.971-26.684-26.684c0-14.718,11.96-26.679,26.684-26.679c14.707,0,26.679,11.961,26.679,26.679
				C196.726,255.337,184.754,267.308,170.047,267.308z M158.766,155.089h-0.908v0.555c-43.202,0.5-78.192,36.545-78.192,80.792
				c0,28.419,14.365,54.217,37.921,68.869C51.834,286.927,6.5,227.598,6.5,158.745C6.5,74.803,74.803,6.5,158.766,6.5
				c40.037,0,72.601,33.331,72.601,74.298S198.803,155.089,158.766,155.089z"/>
		</g>
		<g>
			<path style="fill:#010002;" d="M170.047,53.439c-14.724,0-26.684,11.966-26.684,26.684c0,14.702,11.96,26.673,26.684,26.673
				c14.707,0,26.679-11.971,26.679-26.673C196.726,65.399,184.754,53.439,170.047,53.439z"/>
		</g>
	</g>
</g>
<g>
</g>
<g>
</g>
<g>
</g>
<g>
</g>
<g>
</g>
<g>
</g>
<g>
</g>
<g>
</g>
<g>
</g>
<g>
</g>
<g>
</g>
<g>
</g>
<g>
</g>
<g>
</g>
<g>
</g>
</svg>
